<svg width="128" height="128" viewBox="0 0 128 128" fill="none" xmlns="http://www.w3.org/2000/svg">
<path d="M67.4734 3.60443H65.7905C65.7681 3.43166 65.7221 3.27571 65.6525 3.1366C65.583 2.99748 65.491 2.87856 65.3766 2.77984C65.2621 2.68111 65.1264 2.60594 64.9693 2.55434C64.8145 2.50048 64.6428 2.47356 64.4544 2.47356C64.12 2.47356 63.8317 2.55546 63.5894 2.71925C63.3493 2.88305 63.1642 3.11977 63.034 3.42941C62.9062 3.73905 62.8422 4.11377 62.8422 4.55355C62.8422 5.01128 62.9073 5.39497 63.0374 5.70461C63.1698 6.01201 63.3549 6.24424 63.5928 6.4013C63.8328 6.55612 64.1167 6.63354 64.4443 6.63354C64.6283 6.63354 64.7954 6.60998 64.9458 6.56286C65.0983 6.51574 65.2318 6.4473 65.3463 6.35755C65.4629 6.26555 65.5583 6.15449 65.6324 6.02435C65.7086 5.89196 65.7614 5.74275 65.7905 5.57671L67.4734 5.58681C67.4442 5.89196 67.3556 6.19263 67.2075 6.48881C67.0616 6.78499 66.8608 7.05537 66.605 7.29994C66.3492 7.54227 66.0374 7.73523 65.6694 7.87884C65.3036 8.02244 64.884 8.09424 64.4106 8.09424C63.7868 8.09424 63.2281 7.95737 62.7345 7.68363C62.2431 7.40764 61.8549 7.006 61.57 6.47871C61.285 5.95143 61.1425 5.3097 61.1425 4.55355C61.1425 3.79515 61.2873 3.1523 61.5767 2.62501C61.8662 2.09773 62.2577 1.69721 62.7513 1.42347C63.245 1.14973 63.7981 1.01286 64.4106 1.01286C64.828 1.01286 65.2139 1.07119 65.5684 1.18787C65.9229 1.3023 66.2348 1.47059 66.5041 1.69272C66.7733 1.91261 66.9921 2.18299 67.1604 2.50385C67.3287 2.82471 67.433 3.19157 67.4734 3.60443Z" fill="#64748B"/>
<path d="M76.2131 5.72282C76.1006 6.47283 75.8611 7.0869 75.4944 7.56501C75.1278 8.04313 74.6779 8.38053 74.1447 8.57722C73.6137 8.77425 73.0431 8.82692 72.433 8.73523C71.8205 8.6432 71.2896 8.42388 70.8402 8.07726C70.3907 7.73063 70.0607 7.27603 69.8501 6.71344C69.6421 6.14897 69.5941 5.49284 69.7062 4.74504C69.8187 3.99502 70.0571 3.38079 70.4215 2.90234C70.7882 2.42423 71.237 2.08666 71.7679 1.88963C72.2989 1.6926 72.8706 1.6401 73.483 1.73213C74.0932 1.82382 74.6232 2.04187 75.0729 2.38627C75.5249 2.73101 75.8561 3.18578 76.0663 3.75058C76.2766 4.31539 76.3255 4.9728 76.2131 5.72282ZM74.5289 5.46974C74.5955 5.02595 74.5885 4.64144 74.5079 4.31621C74.4296 3.99132 74.2846 3.73243 74.073 3.53954C73.8637 3.34698 73.5948 3.22603 73.2664 3.17668C72.9402 3.12767 72.6477 3.16426 72.3889 3.28647C72.1301 3.40867 71.9145 3.61338 71.7421 3.9006C71.5719 4.18814 71.4536 4.55381 71.387 4.99761C71.3205 5.44141 71.3264 5.82575 71.4047 6.15064C71.4853 6.47587 71.6313 6.73492 71.8429 6.92782C72.0545 7.12071 72.3234 7.24166 72.6496 7.29067C72.9779 7.34002 73.2704 7.30342 73.527 7.18089C73.7859 7.05868 74.0004 6.85381 74.1705 6.56626C74.3429 6.27904 74.4624 5.91354 74.5289 5.46974Z" fill="#64748B"/>
<path d="M79.9916 10.3364L77.5563 9.58758L79.578 2.99782L82.0101 3.74561C82.6814 3.95201 83.2189 4.26165 83.6226 4.67453C84.0292 5.08592 84.2887 5.57886 84.4011 6.15334C84.5142 6.72568 84.4658 7.35399 84.2559 8.03828C84.0453 8.72472 83.7324 9.27406 83.3173 9.68633C82.9042 10.0993 82.4138 10.3628 81.846 10.477C81.2789 10.589 80.6608 10.5421 79.9916 10.3364ZM79.5653 8.71936L80.3471 8.95972C80.716 9.07314 81.0471 9.10688 81.3405 9.06093C81.6367 9.0135 81.8936 8.86832 82.1113 8.62539C82.3318 8.38098 82.5148 8.02174 82.6602 7.54767C82.8057 7.0736 82.855 6.67562 82.8082 6.35373C82.7621 6.02969 82.6284 5.76557 82.4071 5.56136C82.1885 5.35567 81.8905 5.19479 81.5131 5.07873L80.7539 4.84529L79.5653 8.71936Z" fill="#64748B"/>
<path d="M91.9134 7.6516L88.9367 13.8686L87.4347 13.1479L90.4114 6.93084L91.9134 7.6516Z" fill="#64748B"/>
<path d="M101.632 13.5615L97.7656 19.2681L96.5961 18.474L96.5581 13.6396L96.5219 13.615L94.2906 16.9086L92.9123 15.9727L96.7784 10.2661L97.9646 11.0715L97.9813 15.8833L98.0287 15.9155L100.256 12.6275L101.632 13.5615Z" fill="#64748B"/>
<path d="M106.306 20.5761C106.374 20.4462 106.417 20.3166 106.436 20.1872C106.456 20.0561 106.452 19.9259 106.425 19.7968C106.397 19.6676 106.345 19.5418 106.269 19.4194C106.194 19.2953 106.096 19.177 105.974 19.0643C105.728 18.8375 105.461 18.7006 105.172 18.6535C104.884 18.608 104.587 18.6541 104.28 18.7921C103.974 18.9284 103.672 19.1582 103.374 19.4817C103.075 19.8068 102.866 20.1274 102.749 20.4436C102.632 20.7597 102.607 21.0602 102.674 21.3451C102.741 21.6299 102.901 21.8896 103.155 22.124C103.379 22.331 103.602 22.4697 103.824 22.5401C104.049 22.6105 104.265 22.6153 104.47 22.5545C104.675 22.4938 104.863 22.3718 105.031 22.1886L105.234 22.4259L104.002 21.2889L104.825 20.3953L107.009 22.4113L106.391 23.0821C105.973 23.5359 105.518 23.8355 105.028 23.9809C104.538 24.1278 104.046 24.1327 103.55 23.9954C103.056 23.8597 102.591 23.591 102.156 23.1892C101.673 22.7432 101.345 22.2465 101.172 21.699C100.999 21.1515 100.989 20.5895 101.142 20.0129C101.296 19.4347 101.619 18.8783 102.112 18.3436C102.495 17.9277 102.897 17.616 103.317 17.4083C103.738 17.199 104.163 17.0841 104.591 17.0636C105.02 17.0447 105.434 17.1121 105.832 17.266C106.232 17.4214 106.601 17.6551 106.939 17.9672C107.232 18.2381 107.466 18.5321 107.641 18.8491C107.817 19.1677 107.932 19.4935 107.985 19.8266C108.04 20.1612 108.031 20.4904 107.958 20.8143C107.886 21.1381 107.748 21.44 107.545 21.7199L106.306 20.5761Z" fill="#64748B"/>
<path d="M117.843 36.5683L116.996 35.1141C117.134 35.0076 117.245 34.8892 117.331 34.759C117.416 34.6288 117.472 34.4893 117.5 34.3407C117.528 34.192 117.524 34.0368 117.49 33.8751C117.458 33.7142 117.395 33.5523 117.3 33.3894C117.132 33.1005 116.916 32.8926 116.653 32.7658C116.39 32.6409 116.093 32.6003 115.76 32.6439C115.428 32.6895 115.072 32.8231 114.693 33.0448C114.297 33.2755 113.999 33.5252 113.797 33.7937C113.598 34.0631 113.49 34.3401 113.474 34.6248C113.462 34.9103 113.538 35.1946 113.702 35.4777C113.795 35.6367 113.899 35.7693 114.016 35.8754C114.133 35.9835 114.26 36.0644 114.395 36.118C114.533 36.1725 114.677 36.1989 114.826 36.1973C114.979 36.1965 115.135 36.1668 115.293 36.1083L116.131 37.5676C115.853 37.6962 115.548 37.7712 115.218 37.7925C114.889 37.8158 114.554 37.7786 114.214 37.6808C113.876 37.5819 113.553 37.4097 113.243 37.1641C112.935 36.9205 112.662 36.5941 112.424 36.185C112.11 35.6459 111.947 35.0941 111.935 34.5296C111.926 33.9658 112.078 33.4279 112.39 32.9159C112.702 32.4038 113.184 31.9572 113.837 31.5761C114.492 31.1937 115.12 30.9948 115.721 30.9791C116.322 30.9634 116.865 31.0998 117.35 31.3884C117.835 31.677 118.231 32.0859 118.54 32.6152C118.75 32.9759 118.894 33.3388 118.971 33.704C119.051 34.068 119.062 34.4223 119.006 34.767C118.952 35.1105 118.828 35.4358 118.636 35.743C118.444 36.0502 118.179 36.3253 117.843 36.5683Z" fill="#64748B"/>
<path d="M120.415 45.1931C119.711 45.4739 119.06 45.5763 118.462 45.5005C117.865 45.4247 117.347 45.206 116.908 44.8445C116.471 44.485 116.138 44.0186 115.91 43.4453C115.681 42.8698 115.603 42.3006 115.676 41.7376C115.75 41.1747 115.976 40.6605 116.356 40.1951C116.739 39.7309 117.282 39.3588 117.984 39.0789C118.689 38.7981 119.339 38.6946 119.936 38.7684C120.534 38.8442 121.051 39.0618 121.489 39.4213C121.926 39.7807 122.259 40.2481 122.488 40.8236C122.716 41.397 122.795 41.9647 122.724 42.5268C122.653 43.0911 122.427 43.6063 122.045 44.0726C121.663 44.5388 121.12 44.9123 120.415 45.1931ZM119.786 43.6106C120.203 43.4445 120.532 43.2447 120.772 43.0112C121.013 42.7798 121.164 42.5241 121.224 42.2441C121.285 41.9662 121.254 41.673 121.131 41.3644C121.009 41.0579 120.831 40.8236 120.595 40.6616C120.359 40.4996 120.073 40.4165 119.739 40.4122C119.404 40.4101 119.029 40.4921 118.612 40.6583C118.195 40.8244 117.866 41.0232 117.625 41.2546C117.385 41.488 117.234 41.7448 117.174 42.0248C117.114 42.3048 117.145 42.598 117.267 42.9045C117.39 43.2131 117.569 43.4473 117.804 43.6073C118.039 43.7693 118.324 43.8514 118.658 43.8535C118.993 43.8577 119.369 43.7767 119.786 43.6106Z" fill="#64748B"/>
<path d="M118.335 50.7881L117.755 48.3071L124.467 46.7349L125.046 49.2126C125.206 49.8965 125.209 50.5168 125.056 51.0735C124.905 51.6319 124.61 52.1043 124.17 52.4908C123.733 52.8767 123.166 53.1513 122.469 53.3146C121.77 53.4784 121.137 53.4847 120.572 53.3337C120.007 53.1849 119.533 52.8939 119.148 52.4609C118.765 52.0274 118.495 51.4698 118.335 50.7881ZM119.517 49.6055L119.704 50.4019C119.791 50.7777 119.929 51.0807 120.117 51.311C120.307 51.543 120.562 51.6919 120.881 51.7576C121.203 51.825 121.606 51.8021 122.089 51.689C122.571 51.5759 122.94 51.4181 123.195 51.2156C123.451 51.0126 123.612 50.7641 123.677 50.47C123.745 50.1776 123.734 49.8392 123.644 49.4546L123.463 48.6812L119.517 49.6055Z" fill="#64748B"/>
<path d="M126.663 59.7437L119.793 60.3012L119.658 58.6406L126.529 58.0831L126.663 59.7437Z" fill="#64748B"/>
<path d="M126.458 71.1236L119.581 70.654L119.678 69.2436L123.833 66.778L123.836 66.7344L119.867 66.4633L119.98 64.8012L126.857 65.2708L126.76 66.7013L122.613 69.1371L122.609 69.1942L126.571 69.4648L126.458 71.1236Z" fill="#64748B"/>
<path d="M122.759 78.7007C122.905 78.694 123.039 78.666 123.16 78.6169C123.283 78.5683 123.394 78.4997 123.491 78.4109C123.589 78.3222 123.671 78.214 123.739 78.0864C123.808 77.9593 123.86 77.8146 123.896 77.6525C123.968 77.326 123.952 77.0259 123.846 76.7522C123.741 76.4807 123.551 76.2469 123.277 76.0509C123.006 75.8553 122.655 75.7101 122.226 75.6153C121.794 75.52 121.412 75.5012 121.08 75.5588C120.748 75.6165 120.476 75.7459 120.264 75.9473C120.052 76.1486 119.908 76.418 119.834 76.7554C119.768 77.0535 119.761 77.3161 119.812 77.5434C119.865 77.7733 119.969 77.9618 120.125 78.1088C120.281 78.2559 120.481 78.3562 120.724 78.4099L120.621 78.7044L120.982 77.0675L122.168 77.3295L121.529 80.2318L120.638 80.0351C120.036 79.9021 119.548 79.6599 119.175 79.3087C118.802 78.9597 118.549 78.5363 118.418 78.0385C118.285 77.5429 118.283 77.0058 118.411 76.4273C118.552 75.7853 118.816 75.2518 119.201 74.8268C119.586 74.4018 120.067 74.1103 120.641 73.9522C121.218 73.7947 121.862 73.7943 122.572 73.9511C123.124 74.073 123.595 74.2633 123.986 74.522C124.38 74.7812 124.693 75.0905 124.926 75.4499C125.159 75.8115 125.309 76.2032 125.377 76.6249C125.445 77.0488 125.429 77.4854 125.33 77.9346C125.244 78.3246 125.108 78.6749 124.922 78.9855C124.736 79.2983 124.513 79.5614 124.252 79.775C123.991 79.9908 123.702 80.1488 123.386 80.249C123.07 80.3492 122.74 80.382 122.396 80.3474L122.759 78.7007Z" fill="#64748B"/>
<path d="M114.771 96.7338L115.599 95.2689C115.761 95.3345 115.919 95.3714 116.074 95.3794C116.229 95.3875 116.378 95.366 116.52 95.3151C116.663 95.2641 116.795 95.183 116.917 95.0717C117.04 94.9635 117.148 94.8274 117.241 94.6633C117.405 94.3723 117.476 94.0809 117.453 93.7892C117.428 93.4995 117.314 93.2216 117.108 92.9557C116.902 92.6917 116.607 92.4513 116.225 92.2345C115.826 92.0088 115.461 91.8763 115.127 91.8369C114.794 91.8006 114.501 91.8472 114.248 91.9768C113.995 92.1095 113.788 92.3184 113.626 92.6036C113.536 92.7637 113.474 92.9209 113.441 93.075C113.407 93.231 113.401 93.381 113.423 93.5248C113.445 93.6717 113.495 93.8095 113.572 93.9381C113.649 94.0698 113.753 94.1893 113.883 94.2965L113.046 95.7564C112.795 95.5806 112.577 95.3552 112.392 95.0803C112.206 94.8073 112.07 94.4992 111.983 94.1559C111.898 93.8138 111.884 93.4472 111.94 93.056C111.995 92.6669 112.139 92.2662 112.372 91.8541C112.679 91.3111 113.073 90.8923 113.554 90.5975C114.036 90.3059 114.577 90.166 115.176 90.1779C115.775 90.1898 116.403 90.3821 117.061 90.7549C117.721 91.1289 118.209 91.5718 118.525 92.0837C118.842 92.5956 118.997 93.1339 118.993 93.6986C118.988 94.2632 118.835 94.8122 118.533 95.3454C118.328 95.7087 118.087 96.0159 117.811 96.2669C117.537 96.5191 117.237 96.7076 116.911 96.8325C116.587 96.9585 116.244 97.0156 115.882 97.0039C115.52 96.9922 115.15 96.9022 114.771 96.7338Z" fill="#64748B"/>
<path d="M108.624 103.304C108.027 102.837 107.611 102.325 107.376 101.77C107.14 101.215 107.068 100.657 107.16 100.096C107.25 99.5364 107.485 99.0136 107.865 98.5275C108.246 98.0396 108.698 97.6855 109.221 97.465C109.743 97.2446 110.301 97.1814 110.894 97.2754C111.488 97.3726 112.082 97.6543 112.677 98.1207C113.274 98.5884 113.691 99.0989 113.928 99.6522C114.163 100.207 114.236 100.764 114.146 101.324C114.056 101.883 113.82 102.407 113.439 102.895C113.059 103.381 112.608 103.735 112.087 103.957C111.565 104.18 111.007 104.245 110.412 104.149C109.817 104.054 109.221 103.772 108.624 103.304ZM109.673 101.963C110.027 102.24 110.364 102.423 110.687 102.513C111.008 102.605 111.305 102.607 111.576 102.518C111.847 102.43 112.085 102.256 112.289 101.994C112.492 101.734 112.604 101.461 112.625 101.176C112.646 100.89 112.575 100.602 112.41 100.31C112.243 100.02 111.983 99.7365 111.63 99.4597C111.277 99.1829 110.94 98.9986 110.619 98.9066C110.296 98.8164 109.999 98.8158 109.727 98.9049C109.455 98.9941 109.218 99.1686 109.014 99.4284C108.81 99.69 108.698 99.9628 108.678 100.247C108.657 100.532 108.73 100.82 108.896 101.11C109.061 101.402 109.32 101.686 109.673 101.963Z" fill="#64748B"/>
<path d="M102.751 104.325L104.601 102.573L109.335 107.582L107.488 109.332C106.978 109.815 106.444 110.131 105.887 110.279C105.329 110.43 104.772 110.413 104.218 110.228C103.664 110.044 103.142 109.692 102.65 109.172C102.157 108.65 101.833 108.107 101.679 107.542C101.523 106.979 101.536 106.422 101.716 105.871C101.898 105.322 102.243 104.806 102.751 104.325ZM104.367 104.751L103.773 105.313C103.493 105.579 103.3 105.85 103.196 106.129C103.091 106.41 103.091 106.705 103.195 107.015C103.299 107.327 103.522 107.664 103.862 108.024C104.203 108.384 104.524 108.624 104.827 108.742C105.132 108.861 105.427 108.875 105.714 108.783C106 108.694 106.287 108.514 106.573 108.242L107.15 107.696L104.367 104.751Z" fill="#64748B"/>
<path d="M99.2147 116.036L95.276 110.379L96.6423 109.426L100.581 115.083L99.2147 116.036Z" fill="#64748B"/>
<path d="M89.2895 121.592L86.2337 115.414L87.5002 114.786L91.7216 117.133L91.7608 117.114L89.9971 113.548L91.4898 112.808L94.5456 118.987L93.261 119.623L89.0698 117.268L89.0185 117.294L90.7792 120.854L89.2895 121.592Z" fill="#64748B"/>
<path d="M80.8892 122.21C80.9687 122.333 81.0601 122.435 81.1635 122.515C81.2676 122.597 81.3825 122.658 81.5084 122.697C81.6342 122.737 81.7692 122.754 81.9133 122.747C82.058 122.743 82.2095 122.716 82.3675 122.665C82.6858 122.563 82.9367 122.397 83.1202 122.168C83.3015 121.94 83.4079 121.659 83.4394 121.323C83.4715 120.99 83.4204 120.614 83.286 120.195C83.151 119.775 82.975 119.435 82.758 119.177C82.5409 118.92 82.292 118.75 82.0113 118.668C81.7306 118.586 81.4257 118.598 81.0968 118.704C80.8063 118.797 80.5757 118.923 80.4051 119.082C80.233 119.243 80.1227 119.428 80.0742 119.637C80.0258 119.846 80.0396 120.069 80.1157 120.306L79.8096 120.366L81.4052 119.853L81.7764 121.01L78.9471 121.919L78.6685 121.051C78.48 120.463 78.4436 119.92 78.5591 119.421C78.6726 118.922 78.9112 118.491 79.275 118.126C79.6367 117.763 80.0995 117.49 80.6634 117.309C81.2893 117.108 81.8828 117.066 82.4441 117.185C83.0054 117.304 83.499 117.572 83.9249 117.989C84.3515 118.408 84.6759 118.964 84.898 119.656C85.0707 120.194 85.1438 120.698 85.1172 121.166C85.0913 121.636 84.9819 122.062 84.7889 122.445C84.5937 122.828 84.3311 123.156 84.001 123.427C83.6687 123.698 83.2837 123.905 82.8458 124.046C82.4655 124.168 82.0945 124.227 81.7328 124.223C81.3688 124.22 81.029 124.159 80.7132 124.042C80.3952 123.925 80.1134 123.755 79.8676 123.532C79.6218 123.31 79.4272 123.041 79.2839 122.727L80.8892 122.21Z" fill="#64748B"/>
<path d="M61.3024 124.385L62.9851 124.363C63.0097 124.536 63.0577 124.691 63.129 124.829C63.2004 124.967 63.2939 125.085 63.4096 125.182C63.5252 125.28 63.6619 125.353 63.8196 125.403C63.9751 125.454 64.1471 125.479 64.3356 125.477C64.6699 125.472 64.9571 125.387 65.1974 125.22C65.4353 125.053 65.6174 124.814 65.7436 124.503C65.8675 124.192 65.9267 123.816 65.9211 123.376C65.9152 122.919 65.8453 122.536 65.7112 122.228C65.5749 121.922 65.3868 121.692 65.147 121.538C64.905 121.387 64.6202 121.313 64.2926 121.317C64.1086 121.319 63.9418 121.345 63.7921 121.394C63.6401 121.443 63.5075 121.513 63.3942 121.604C63.2787 121.698 63.1848 121.81 63.1124 121.941C63.0378 122.075 62.987 122.225 62.9599 122.391L61.2771 122.402C61.3024 122.097 61.3872 121.795 61.5315 121.497C61.6735 121.199 61.8709 120.926 62.1235 120.678C62.3762 120.433 62.6856 120.236 63.0517 120.087C63.4156 119.939 63.8342 119.862 64.3076 119.856C64.9314 119.848 65.4918 119.978 65.9888 120.245C66.4837 120.515 66.877 120.911 67.1686 121.435C67.4603 121.959 67.611 122.598 67.6206 123.355C67.6303 124.113 67.4938 124.758 67.2111 125.288C66.9284 125.819 66.542 126.225 66.0519 126.505C65.5618 126.785 65.0105 126.929 64.398 126.937C63.9807 126.942 63.594 126.889 63.238 126.777C62.8821 126.667 62.5681 126.502 62.296 126.284C62.024 126.067 61.8018 125.8 61.6294 125.481C61.4571 125.162 61.348 124.797 61.3024 124.385Z" fill="#64748B"/>
<path d="M52.5362 122.378C52.6391 121.627 52.8708 121.01 53.2313 120.527C53.5918 120.044 54.0374 119.701 54.568 119.497C55.0964 119.294 55.6663 119.234 56.2776 119.318C56.8911 119.402 57.4248 119.614 57.8787 119.955C58.3325 120.296 58.6683 120.746 58.8861 121.306C59.1013 121.868 59.1576 122.523 59.055 123.273C58.9522 124.024 58.7216 124.641 58.3633 125.124C58.0028 125.607 57.5583 125.95 57.0299 126.154C56.5015 126.358 55.9305 126.418 55.317 126.334C54.7057 126.25 54.173 126.038 53.7188 125.7C53.2625 125.361 52.9255 124.91 52.7081 124.348C52.4906 123.786 52.4333 123.129 52.5362 122.378ZM54.2234 122.61C54.1626 123.054 54.1745 123.439 54.2592 123.763C54.3417 124.087 54.4899 124.344 54.7039 124.534C54.9157 124.724 55.1861 124.841 55.5151 124.886C55.8419 124.931 56.1339 124.891 56.3912 124.765C56.6484 124.64 56.8614 124.432 57.0301 124.143C57.1966 123.853 57.3103 123.486 57.3711 123.042C57.432 122.597 57.4212 122.213 57.3387 121.889C57.254 121.565 57.1047 121.307 56.8907 121.117C56.6766 120.927 56.4062 120.81 56.0795 120.765C55.7505 120.72 55.4585 120.76 55.2034 120.886C54.9462 121.011 54.7343 121.219 54.5678 121.509C54.3991 121.798 54.2843 122.165 54.2234 122.61Z" fill="#64748B"/>
<path d="M48.6989 117.813L51.1436 118.531L49.2061 125.146L46.7647 124.429C46.0908 124.231 45.5494 123.929 45.1404 123.521C44.7286 123.115 44.4628 122.625 44.3431 122.052C44.2227 121.481 44.2631 120.853 44.4643 120.166C44.6661 119.477 44.9719 118.923 45.3818 118.506C45.7895 118.088 46.2765 117.818 46.8428 117.696C47.4085 117.577 48.0272 117.616 48.6989 117.813ZM49.1458 119.425L48.361 119.194C47.9907 119.086 47.6592 119.056 47.3664 119.106C47.0708 119.157 46.8158 119.305 46.6012 119.551C46.3838 119.798 46.2055 120.16 46.0661 120.636C45.9267 121.112 45.8824 121.51 45.9333 121.832C45.9835 122.155 46.1206 122.417 46.3446 122.619C46.5657 122.822 46.8657 122.979 47.2446 123.09L48.0068 123.314L49.1458 119.425Z" fill="#64748B"/>
<path d="M36.8125 120.65L39.7096 114.396L41.2207 115.097L38.3236 121.352L36.8125 120.65Z" fill="#64748B"/>
<path d="M27.0198 114.865L30.8128 109.11L31.9923 109.889L32.0921 114.722L32.1286 114.746L34.3177 111.424L35.7079 112.343L31.9149 118.098L30.7185 117.308L30.6403 112.497L30.5926 112.465L28.4072 115.781L27.0198 114.865Z" fill="#64748B"/>
<path d="M22.2558 107.911C22.1897 108.041 22.1482 108.172 22.1313 108.301C22.1129 108.433 22.1182 108.563 22.1473 108.692C22.1764 108.82 22.2299 108.945 22.3078 109.067C22.3843 109.19 22.4842 109.307 22.6076 109.418C22.8561 109.642 23.1253 109.775 23.415 109.819C23.7031 109.861 23.9997 109.811 24.305 109.669C24.6088 109.529 24.9076 109.295 25.2014 108.968C25.4967 108.639 25.701 108.315 25.8143 107.998C25.9276 107.68 25.9489 107.379 25.8782 107.095C25.8075 106.812 25.6437 106.554 25.3868 106.323C25.16 106.119 24.9352 105.983 24.7125 105.915C24.4866 105.848 24.2713 105.846 24.0666 105.909C23.862 105.972 23.6765 106.097 23.5101 106.282L23.3046 106.047L24.5506 107.169L23.7388 108.073L21.5297 106.085L22.1391 105.406C22.5513 104.947 23.0019 104.642 23.4908 104.49C23.9781 104.337 24.4706 104.326 24.9683 104.457C25.4643 104.586 25.9324 104.849 26.3727 105.245C26.8614 105.685 27.1957 106.177 27.3756 106.722C27.5555 107.268 27.5727 107.829 27.4273 108.408C27.2803 108.988 26.964 109.549 26.4783 110.09C26.1006 110.51 25.703 110.827 25.2856 111.04C24.8667 111.255 24.4435 111.375 24.0162 111.401C23.5871 111.425 23.1725 111.363 22.7724 111.215C22.3705 111.064 21.9987 110.835 21.6567 110.528C21.3599 110.26 21.122 109.969 20.9433 109.655C20.7629 109.338 20.644 109.014 20.5866 108.682C20.5275 108.348 20.5322 108.018 20.6007 107.694C20.6691 107.369 20.803 107.065 21.0024 106.783L22.2558 107.911Z" fill="#64748B"/>
<path d="M10.5168 92.0673L11.3822 93.5106C11.2456 93.6188 11.1356 93.7386 11.0522 93.8699C10.9687 94.0012 10.9141 94.1414 10.8883 94.2904C10.8625 94.4394 10.8679 94.5945 10.9044 94.7558C10.9379 94.9163 11.0031 95.0774 11.1 95.2391C11.2719 95.5258 11.4904 95.7309 11.7554 95.8543C12.0193 95.9759 12.3174 96.0127 12.6497 95.9648C12.9809 95.915 13.335 95.7769 13.7119 95.5503C14.1042 95.3145 14.3997 95.0611 14.5981 94.79C14.7935 94.5181 14.8974 94.2397 14.9097 93.9549C14.9189 93.6692 14.8393 93.3859 14.6709 93.1049C14.5762 92.9472 14.4701 92.8159 14.3524 92.7113C14.2335 92.6047 14.1062 92.5254 13.9705 92.4735C13.8316 92.4208 13.6874 92.3963 13.5377 92.3998C13.385 92.4026 13.23 92.4342 13.0727 92.4947L12.2159 91.0462C12.4925 90.9141 12.7958 90.8352 13.1258 90.8097C13.4547 90.7822 13.7897 90.8151 14.1309 90.9085C14.4701 91.0031 14.7959 91.1712 15.1082 91.4128C15.4194 91.6525 15.6967 91.9754 15.9402 92.3814C16.261 92.9164 16.431 93.4661 16.4502 94.0304C16.4663 94.594 16.3217 95.1338 16.0163 95.6498C15.7109 96.1658 15.2341 96.6185 14.586 97.008C13.9359 97.3987 13.3105 97.6057 12.7097 97.629C12.1089 97.6524 11.5642 97.5229 11.0757 97.2405C10.5873 96.9582 10.1855 96.5543 9.87049 96.029C9.65587 95.6711 9.50741 95.31 9.4251 94.9459C9.34088 94.5829 9.32473 94.2287 9.37666 93.8834C9.42667 93.5392 9.54592 93.2123 9.7344 92.9027C9.92288 92.5931 10.1837 92.3146 10.5168 92.0673Z" fill="#64748B"/>
<path d="M7.83407 83.4761C8.53494 83.1863 9.18463 83.0756 9.78315 83.1438C10.3817 83.2119 10.9024 83.424 11.3453 83.7799C11.7874 84.1337 12.1261 84.5958 12.3614 85.1662C12.5975 85.7387 12.6826 86.3069 12.6167 86.8707C12.5507 87.4346 12.3308 87.9516 11.9568 88.4219C11.5799 88.8909 11.042 89.2699 10.3432 89.5588C9.64238 89.8485 8.99312 89.9604 8.39545 89.8942C7.79693 89.826 7.27663 89.615 6.83456 89.2612C6.39249 88.9074 6.05337 88.4442 5.81722 87.8718C5.58191 87.3013 5.4962 86.7346 5.56008 86.1716C5.6231 85.6066 5.84264 85.0885 6.21869 84.6174C6.59475 84.1463 7.13321 83.7658 7.83407 83.4761ZM8.48351 85.0504C8.06879 85.2219 7.74275 85.4259 7.50537 85.6624C7.26713 85.8969 7.11975 86.1545 7.06322 86.4352C7.00584 86.7139 7.04047 87.0067 7.16711 87.3137C7.29289 87.6186 7.47474 87.8505 7.71266 88.0095C7.95058 88.1686 8.237 88.248 8.57193 88.2479C8.90599 88.2458 9.28039 88.159 9.6951 87.9876C10.1098 87.8161 10.4363 87.6131 10.6745 87.3787C10.9119 87.1422 11.0589 86.8835 11.1154 86.6028C11.1719 86.322 11.1373 86.0292 11.0115 85.7243C10.8849 85.4173 10.703 85.1854 10.4659 85.0284C10.228 84.8694 9.94203 84.791 9.60796 84.7932C9.27304 84.7932 8.89822 84.879 8.48351 85.0504Z" fill="#64748B"/>
<path d="M9.84304 77.855L10.4546 80.3283L3.76401 81.9862L3.15329 79.5161C2.98473 78.8344 2.97353 78.2142 3.1197 77.6555C3.26315 77.0952 3.55222 76.619 3.9869 76.227C4.4194 75.8355 4.98303 75.5537 5.67778 75.3815C6.37472 75.2088 7.00677 75.1944 7.57393 75.3382C8.14055 75.4798 8.61893 75.7646 9.00907 76.1927C9.39702 76.6213 9.67502 77.1754 9.84304 77.855ZM8.67607 79.0526L8.47977 78.2587C8.38714 77.884 8.24562 77.5828 8.05522 77.3549C7.86209 77.1253 7.60536 76.9797 7.28503 76.9181C6.96197 76.8548 6.55979 76.8828 6.07847 77.0021C5.59715 77.1214 5.23053 77.2839 4.97861 77.4896C4.72452 77.6959 4.56689 77.9465 4.50574 78.2413C4.44187 78.5346 4.45732 78.8729 4.55211 79.2562L4.74276 80.0273L8.67607 79.0526Z" fill="#64748B"/>
<path d="M1.4012 69.0066L8.26384 68.3613L8.41946 70.02L1.55683 70.6653L1.4012 69.0066Z" fill="#64748B"/>
<path d="M1.46111 57.625L8.34347 58.0062L8.26528 59.4176L4.14142 61.9364L4.139 61.9801L8.11114 62.2002L8.01899 63.8636L1.13663 63.4824L1.21594 62.0508L5.3314 59.5619L5.33457 59.5047L1.36915 59.2851L1.46111 57.625Z" fill="#64748B"/>
<path d="M5.06298 50.0012C4.91684 50.0098 4.78354 50.0394 4.66307 50.0901C4.54041 50.1403 4.43081 50.2103 4.33428 50.3003C4.23776 50.3903 4.15672 50.4995 4.09117 50.628C4.02343 50.756 3.97273 50.9013 3.93907 51.0639C3.8713 51.3913 3.89172 51.6911 4.00034 51.9634C4.1094 52.2335 4.30211 52.4649 4.57846 52.6574C4.85262 52.8495 5.205 52.9902 5.63562 53.0795C6.06843 53.1693 6.45049 53.1833 6.78179 53.1214C7.1131 53.0595 7.38351 52.9265 7.59301 52.7225C7.80251 52.5185 7.94228 52.2473 8.01232 51.9089C8.07417 51.6101 8.07814 51.3474 8.02423 51.1208C7.96857 50.8915 7.8618 50.7044 7.70394 50.5594C7.54607 50.4143 7.3452 50.3165 7.10133 50.2659L7.20035 49.9702L6.8606 51.6115L5.67092 51.3647L6.27332 48.4545L7.1664 48.6398C7.77058 48.7651 8.26137 49.001 8.63877 49.3474C9.01662 49.6916 9.2745 50.1118 9.41241 50.6079C9.55077 51.1017 9.55991 51.6387 9.43984 52.2188C9.30658 52.8626 9.04996 53.3994 8.66997 53.8293C8.28998 54.2592 7.81364 54.5568 7.24095 54.7222C6.66606 54.8871 6.0227 54.8957 5.31087 54.748C4.75723 54.6331 4.28325 54.4489 3.88895 54.1952C3.49244 53.9411 3.17527 53.6358 2.93742 53.2794C2.70002 52.9208 2.54468 52.5311 2.47139 52.1103C2.39856 51.6873 2.40876 51.2506 2.502 50.8001C2.58295 50.409 2.71425 50.057 2.89588 49.7441C3.07797 49.429 3.29801 49.163 3.556 48.9461C3.81444 48.727 4.1011 48.5653 4.41597 48.4611C4.73084 48.3568 5.06044 48.3198 5.40477 48.35L5.06298 50.0012Z" fill="#64748B"/>
<path d="M12.8207 31.8676L12.0112 33.3429C11.849 33.2793 11.6902 33.2445 11.5349 33.2384C11.3795 33.2324 11.2311 33.2557 11.0895 33.3085C10.9479 33.3612 10.8168 33.444 10.696 33.5568C10.5743 33.6666 10.4682 33.8041 10.3775 33.9694C10.2167 34.2625 10.1498 34.5547 10.1767 34.8461C10.2047 35.1355 10.3231 35.4119 10.5318 35.6752C10.7416 35.9365 11.0392 36.1731 11.4246 36.385C11.8257 36.6056 12.1932 36.7334 12.5271 36.7685C12.8601 36.8006 13.1527 36.7502 13.4047 36.6174C13.6559 36.4815 13.8602 36.27 14.0178 35.9828C14.1063 35.8215 14.1661 35.6636 14.1971 35.5091C14.2292 35.3526 14.2335 35.2026 14.2099 35.059C14.1854 34.9124 14.134 34.7753 14.0555 34.6476C13.9762 34.517 13.8709 34.3988 13.7394 34.2933L14.5578 32.8228C14.8111 32.9954 15.032 33.218 15.2202 33.4905C15.4096 33.7611 15.5499 34.0675 15.6412 34.4096C15.7305 34.7506 15.7495 35.117 15.6983 35.5088C15.6482 35.8986 15.5093 36.3011 15.2816 36.7161C14.9815 37.263 14.5928 37.6869 14.1155 37.9877C13.6373 38.2855 13.0986 38.4323 12.4995 38.428C11.9004 38.4238 11.2695 38.2395 10.6069 37.8751C9.94241 37.5097 9.44874 37.073 9.12594 36.5652C8.80314 36.0573 8.64054 35.5211 8.63814 34.9564C8.63573 34.3917 8.78186 33.8409 9.07653 33.3039C9.27729 32.938 9.51406 32.6278 9.78684 32.3732C10.0576 32.1175 10.3551 31.9252 10.6793 31.7962C11.0015 31.6661 11.3437 31.6046 11.7058 31.6116C12.0679 31.6187 12.4395 31.704 12.8207 31.8676Z" fill="#64748B"/>
<path d="M18.8828 25.2188C19.4857 25.6789 19.9084 26.1849 20.1508 26.7369C20.3933 27.2888 20.4725 27.846 20.3883 28.4084C20.3055 28.969 20.0772 29.4947 19.7034 29.9857C19.3283 30.4784 18.8808 30.8383 18.361 31.0654C17.8412 31.2925 17.2842 31.3628 16.6901 31.2764C16.0956 31.1868 15.4978 30.9126 14.8967 30.4539C14.2937 29.9938 13.8704 29.4887 13.6265 28.9385C13.3841 28.3866 13.3042 27.8303 13.387 27.2697C13.4698 26.7091 13.6988 26.1825 14.0739 25.6897C14.4478 25.1988 14.8937 24.8391 15.4117 24.6107C15.9311 24.3804 16.4887 24.3092 17.0846 24.397C17.6805 24.4848 18.2799 24.7587 18.8828 25.2188ZM17.8511 26.5738C17.4943 26.3015 17.1541 26.1224 16.8305 26.0363C16.5082 25.9484 16.2117 25.9508 15.941 26.0434C15.6716 26.1342 15.4363 26.3117 15.2352 26.5759C15.0353 26.8383 14.9267 27.1124 14.9093 27.3983C14.8918 27.6842 14.9675 27.9719 15.1361 28.2615C15.3062 28.5493 15.5696 28.8294 15.9263 29.1016C16.2831 29.3738 16.6226 29.5539 16.9448 29.6418C17.2685 29.7279 17.5657 29.7246 17.8364 29.632C18.1071 29.5394 18.3424 29.3619 18.5422 29.0995C18.7434 28.8353 18.852 28.5612 18.8681 28.2771C18.8855 27.9912 18.8092 27.7044 18.6392 27.4165C18.4705 27.1269 18.2078 26.846 17.8511 26.5738Z" fill="#64748B"/>
<path d="M24.7426 24.1234L22.9154 25.8989L18.1172 20.9502L19.9421 19.177C20.4457 18.6876 20.9755 18.3652 21.5313 18.21C22.0871 18.0516 22.6436 18.0614 23.2008 18.2396C23.7564 18.4162 24.2833 18.7614 24.7815 19.2753C25.2814 19.7908 25.6119 20.33 25.7732 20.8928C25.9361 21.4541 25.931 22.0113 25.7578 22.5644C25.5831 23.1158 25.2447 23.6355 24.7426 24.1234ZM23.1215 23.7182L23.7081 23.1482C23.9849 22.8793 24.1737 22.6051 24.2746 22.3255C24.3756 22.0429 24.372 21.7475 24.264 21.4395C24.1561 21.1283 23.9295 20.7947 23.5843 20.4387C23.2391 20.0826 22.9144 19.8476 22.61 19.7335C22.304 19.6178 22.0084 19.6079 21.7231 19.7036C21.4379 19.7962 21.1536 19.9801 20.8704 20.2553L20.3008 20.8089L23.1215 23.7182Z" fill="#64748B"/>
<path d="M28.1293 12.3678L32.1399 17.9739L30.7859 18.9446L26.7754 13.3386L28.1293 12.3678Z" fill="#64748B"/>
<path d="M37.9827 6.68545L41.1171 12.8245L39.8587 13.4684L35.6078 11.1748L35.5688 11.1947L37.3778 14.7378L35.8947 15.4968L32.7603 9.35773L34.0367 8.70461L38.2576 11.006L38.3085 10.98L36.5026 7.44282L37.9827 6.68545Z" fill="#64748B"/>
<path d="M46.3746 5.9597C46.2935 5.8378 46.2008 5.73757 46.0964 5.65901C45.9913 5.57832 45.8756 5.51894 45.7492 5.48087C45.6229 5.44281 45.4877 5.42783 45.3437 5.43593C45.199 5.4419 45.048 5.4713 44.8906 5.52414C44.5736 5.63053 44.3249 5.79924 44.1443 6.03025C43.9659 6.26056 43.8631 6.54358 43.8359 6.87932C43.8081 7.21293 43.864 7.58824 44.0036 8.00525C44.144 8.42439 44.3244 8.76148 44.5447 9.01652C44.765 9.27156 45.016 9.43818 45.2977 9.51638C45.5795 9.59458 45.8842 9.5787 46.2117 9.46874C46.501 9.37163 46.73 9.24271 46.8986 9.08198C47.0686 8.9184 47.1765 8.73189 47.2223 8.52244C47.2681 8.31299 47.2514 8.09018 47.1723 7.85401L47.4776 7.79058L45.8886 8.32396L45.5028 7.17186L48.3202 6.22612L48.6098 7.091C48.8058 7.67609 48.8492 8.21892 48.74 8.71947C48.6329 9.21931 48.3998 9.65376 48.0407 10.0228C47.6837 10.3912 47.2245 10.6696 46.6629 10.8581C46.0396 11.0673 45.4466 11.1161 44.8839 11.0044C44.3212 10.8927 43.8242 10.6311 43.393 10.2197C42.961 9.80609 42.6296 9.25463 42.3987 8.56528C42.2192 8.02912 42.1397 7.52682 42.1602 7.05839C42.1801 6.58782 42.2841 6.16002 42.4722 5.77498C42.6625 5.38924 42.9209 5.0587 43.2475 4.78338C43.5763 4.50735 43.9587 4.29615 44.3947 4.14977C44.7734 4.02268 45.1436 3.95876 45.5054 3.95802C45.8693 3.95657 46.2099 4.01265 46.5272 4.12626C46.8466 4.23916 47.1306 4.40536 47.3792 4.62485C47.6278 4.84435 47.8258 5.11044 47.9731 5.42311L46.3746 5.9597Z" fill="#64748B"/>
</svg>
